{"title":"Lost S01E16 - AVM (Embedded subtitles)","uid":5043963,"size":128840531,"categoryP":"video","categoryS":"tv_shows","magnet":"?xt=urn:btih:2651d7acfce92deecbbe470110d1c565859824a0&amp;dn=Lost+S01E16+-+AVM+%28Embedded+subtitles%29&amp;tr=udp%3A%2F%2Ftracker.openbittorrent.com%3A80&amp;tr=udp%3A%2F%2Fopen.demonii.com%3A1337&amp;tr=udp%3A%2F%2Ftracker.coppersurfer.tk%3A6969&amp;tr=udp%3A%2F%2Fexodus.desync.com%3A6969","seeders":0,"leechers":1,"uploader":"SysProfile","files":1,"time":1249529255,"description":"AVIDMobile - http://www.avidmobile.com.ar (Mobile media)\n\n* The video contains embedded subtitles in Spanish. You can find the same video without the subtitles. Visit http://blog.avidmobile.com.ar.\n\n* El video contiene subtÃƒÂ­tulos incrustados en EspaÃƒÂ±ol. Usted podrÃƒÂ¡ encontrar el mismo video sin los subtÃƒÂ­tulos. Visite http://blog.avidmobile.com.ar.\n\nVideo\nID                               : 1\nFormat                           : MPEG-4 Visual\nFormat profile                   : Advanced Simple@L5\nFormat settings, BVOP            : Yes\nFormat settings, QPel            : No\nFormat settings, GMC             : No warppoints\nFormat settings, Matrix          : Default (H.263)\nCodec ID                         : 20\nDuration                         : 43mn 18s\nBit rate mode                    : Variable\nBit rate                         : 328 Kbps\nMaximum bit rate                 : 1 238 Kbps\nWidth                            : 320 pixels\nHeight                           : 240 pixels\nDisplay aspect ratio             : 4/3\nFrame rate mode                  : Variable\nFrame rate                       : 23.976 fps\nMinimum frame rate               : 23.974 fps\nMaximum frame rate               : 23.981 fps\nResolution                       : 24 bits\nColorimetry                      : 4:2:0\nScan type                        : Progressive\nBits/(Pixel*Frame)               : 0.178\nStream size                      : 102 MiB (83%)\n\nAudio\nID                               : 2\nFormat                           : AAC\nFormat/Info                      : Advanced Audio Codec\nFormat version                   : Version 4\nFormat profile                   : LC\nFormat settings, SBR             : No\nCodec ID                         : 40\nDuration                         : 43mn 18s\nBit rate mode                    : Variable\nBit rate                         : 66.15 Kbps\nMaximum bit rate                 : 120 Kbps\nChannel(s)                       : 2 channels\nChannel positions                : L R\nSampling rate                    : 22.05 KHz\nResolution                       : 16 bits\nStream size                      : 20.2 MiB (16%)\n","torrent":{"xt":"urn:btih:2651d7acfce92deecbbe470110d1c565859824a0","amp;dn":"Lost+S01E16+-+AVM+%28Embedded+subtitles%29","amp;tr":["udp%3A%2F%2Ftracker.openbittorrent.com%3A80","udp%3A%2F%2Fopen.demonii.com%3A1337","udp%3A%2F%2Ftracker.coppersurfer.tk%3A6969","udp%3A%2F%2Fexodus.desync.com%3A6969"],"infoHash":"2651d7acfce92deecbbe470110d1c565859824a0","infoHashBuffer":{"type":"Buffer","data":[38,81,215,172,252,233,45,238,203,190,71,1,16,209,197,101,133,152,36,160]},"announce":[],"urlList":[]}}